<?xml version="1.0" encoding="UTF-8" standalone="no"?>
<!-- Generator: Adobe Illustrator 10.0, SVG Export Plug-In . SVG Version: 3.0.0 Build 77)  -->

<svg
   width="283.465"
   height="318.897"
   viewBox="0 0 283.465 318.897"
   style="overflow:visible;enable-background:new 0 0 283.465 318.897"
   xml:space="preserve"
   version="1.1"
   id="svg7"
   sodipodi:docname="CHE Aargau COA.svg"
   inkscape:version="1.4.2 (f4327f4, 2025-05-13)"
   xmlns:inkscape="http://www.inkscape.org/namespaces/inkscape"
   xmlns:sodipodi="http://sodipodi.sourceforge.net/DTD/sodipodi-0.dtd"
   xmlns="http://www.w3.org/2000/svg"
   xmlns:svg="http://www.w3.org/2000/svg"><defs
   id="defs7" /><sodipodi:namedview
   id="namedview7"
   pagecolor="#ffffff"
   bordercolor="#000000"
   borderopacity="0.25"
   inkscape:showpageshadow="2"
   inkscape:pageopacity="0.0"
   inkscape:pagecheckerboard="0"
   inkscape:deskcolor="#d1d1d1"
   inkscape:zoom="0.90357078"
   inkscape:cx="601.50241"
   inkscape:cy="239.60492"
   inkscape:window-width="1920"
   inkscape:window-height="1017"
   inkscape:window-x="-8"
   inkscape:window-y="-8"
   inkscape:window-maximized="1"
   inkscape:current-layer="g8" />
	<g
   id="CMYK_Wappen">
		<path
   style="fill-rule:evenodd;clip-rule:evenodd;"
   d="M0,0h283.465v177.165c0,78.278-63.455,141.732-141.732,141.732    S0,255.443,0,177.165V0z"
   id="path1" />
		
		<g
   id="g7">
			
			
		</g>
	</g>
	
<g
   style="stroke:#000000;stroke-width:4"
   id="g8"
   transform="translate(120.05992,-177.27755)"><path
     fill="#0093ddff"
     d="m 24.36508,183.39555 h 132.925 v 170.71709 a 132.925,135.93291 0 0 1 -132.925,135.93291"
     id="path2-4"
     style="fill:#0093dd;fill-opacity:1;stroke:none;stroke-width:1.81038" /><path
     d="m 20.024795,301.10938 c -6.589649,-1.46714 -7.665784,-6.78684 -17.7650786,-6.78684 -11.7344917,0 -9.9486042,7.38832 -23.9682194,7.38832 -14.019614,0 -12.579413,-7.38832 -24.313895,-7.38832 -11.736794,0 -10.867721,7.38832 -24.363364,7.38832 -13.500814,0 -12.184264,-7.38832 -23.918753,-7.38832 -10.912585,0 -11.294495,6.19082 -19.438825,7.06739 v -23.53628 c 8.14433,-0.87384 8.52624,-7.0674 19.438825,-7.0674 11.734489,0 10.417939,7.38558 23.918753,7.38558 13.49622,0 12.62657,-7.38558 24.363364,-7.38558 11.734492,0 10.294281,7.38558 24.313895,7.38558 14.0196152,0 12.2337277,-7.38558 23.9682194,-7.38558 10.0992946,0 11.1800256,5.3115 17.7650786,6.80053 z"
     id="path15"
     inkscape:connector-curvature="0"
     style="fill:#ffffff;stroke-width:2.69231;stroke-dasharray:none" /><path
     d="m 20.024795,332.54447 c -6.589649,-1.46508 -7.665784,-6.78958 -17.7650786,-6.78958 -11.7344917,0 -9.9486042,7.38834 -23.9682194,7.38834 -14.019614,0 -12.579413,-7.38834 -24.313895,-7.38834 -11.736794,0 -10.867721,7.38834 -24.363364,7.38834 -13.500814,0 -12.184264,-7.38834 -23.918753,-7.38834 -10.912585,0 -11.294495,6.19082 -19.438825,7.0674 v -23.53288 c 8.14433,-0.87658 8.52624,-7.06737 19.438825,-7.06737 11.734489,0 10.417939,7.39106 23.918753,7.39106 13.49622,0 12.62657,-7.39106 24.363364,-7.39106 11.734492,0 10.294281,7.39106 24.313895,7.39106 14.0196152,0 12.2337277,-7.39106 23.9682194,-7.39106 10.0992946,0 11.1800256,5.31422 17.7650786,6.78683 z"
     id="path17"
     inkscape:connector-curvature="0"
     style="fill:#ffffff;stroke-width:2.69231;stroke-dasharray:none" /><path
     d="m 20.024795,363.97888 c -6.589649,-1.48083 -7.665784,-6.78957 -17.7650786,-6.78957 -11.7344917,0 -9.9486042,7.37738 -23.9682194,7.37738 -14.019614,0 -12.579413,-7.37738 -24.313895,-7.37738 -11.736794,0 -10.867721,7.37738 -24.363364,7.37738 -13.500814,0 -12.184264,-7.37738 -23.918753,-7.37738 -10.912585,0 -11.294495,6.1908 -19.438825,7.05712 v -23.53356 c 8.14433,-0.86631 8.52624,-7.05711 19.438825,-7.05711 11.734489,0 10.417939,7.37737 23.918753,7.37737 13.49622,0 12.62657,-7.37737 24.363364,-7.37737 11.734492,0 10.294281,7.37737 24.313895,7.37737 14.0196152,0 12.2337277,-7.37737 23.9682194,-7.37737 10.0992946,0 11.1800256,5.31422 17.7650786,6.78957 z"
     id="path19"
     inkscape:connector-curvature="0"
     style="fill:#ffffff;stroke-width:2.69231;stroke-dasharray:none" /><polygon
     id="polygon9-8"
     transform="matrix(0.52685941,0,0,0.53618185,2.884176,295.5832)"
     points="276.218,-16.1648 247.041,3.8389 258.159,39.6572 225.387,18.557 192.599,39.6572 203.976,3.54796 174.539,-16.1648 211.485,-16.1648 225.387,-53.9286 239.288,-16.1648 "
     style="overflow:visible;fill:#ffffff;stroke:#000000;stroke-width:3.34144;stroke-dasharray:none" /><polygon
     id="polygon11-2"
     transform="matrix(0.52685941,0,0,0.53618185,2.884176,295.5832)"
     points="132.728,3.83999 143.828,39.6579 111.046,18.5579 78.538,39.6579 89.6384,3.54905 60.2052,-16.1636 97.1629,-16.1636 111.046,-53.927 124.945,-16.1636 161.887,-16.1636 "
     style="overflow:visible;fill:#ffffff;stroke:#000000;stroke-width:3.34144;stroke-dasharray:none" /><polygon
     id="polygon13-4"
     transform="matrix(0.52685941,0,0,0.53618185,2.884176,295.5832)"
     points="218.977,83.8243 189.546,103.557 200.943,139.656 168.144,118.556 135.345,139.373 146.45,103.557 117.294,83.5582 154.238,83.5582 168.144,46.0627 182.034,83.8243 "
     style="overflow:visible;fill:#ffffff;stroke:#000000;stroke-width:3.34144;stroke-dasharray:none" /></g><g
   style="stroke:#000000;stroke-width:4"
   id="g9"
   transform="matrix(0.44449772,0,0,0.44348963,14.074828,6.6004753)"><g
     id="g2"
     transform="matrix(1.1852916,0,0,1.2090065,-0.22381152,1.0367215)"
     style="stroke-width:3.34144;stroke-dasharray:none" /></g></svg>
